<?xml version="1.0" encoding="utf-8"?>
<!-- Generator: Adobe Illustrator 18.0.0, SVG Export Plug-In . SVG Version: 6.00 Build 0)  -->
<!DOCTYPE svg PUBLIC "-//W3C//DTD SVG 1.1//EN" "http://www.w3.org/Graphics/SVG/1.1/DTD/svg11.dtd">
<svg version="1.1" id="Layer_1" xmlns="http://www.w3.org/2000/svg" xmlns:xlink="http://www.w3.org/1999/xlink" x="0px" y="0px"
	 width="1400px" height="980px" viewBox="0 0 1400 980" enable-background="new 0 0 1400 980" xml:space="preserve">
<g>
	<rect fill="#FFFFFF" width="1400" height="980"/>
	<g>
		<polygon fill="#897E74" points="175.4,62.3 186.4,39.2 178.4,39.2 170,56.8 142,70.2 155.4,42.2 161.7,39.2 148.8,39.2 
			126.7,85.6 		"/>
		<path fill="#897E74" d="M211.1,120.5l18-50.9l-10.8-30.4h-14.5l-10.8,30.4L211.1,120.5z M221.4,69.6l-10.3,29.2l-10.3-29.2
			l10.3-29.1L221.4,69.6z"/>
		<polygon fill="#897E74" points="295.6,85.6 273.4,39.2 260.5,39.2 266.8,42.2 280.2,70.2 252.2,56.8 243.8,39.2 235.8,39.2 
			246.8,62.3 		"/>
		<polygon fill="#897E74" points="180.1,76.1 211.1,164.1 242.2,76.1 326.3,116.4 289.5,39.2 281.5,39.2 311,101 238,66.1 
			211.1,142.4 184.2,66.1 111.2,101 140.8,39.2 132.8,39.2 95.9,116.3 		"/>
		<path fill="#897E74" d="M537,120.5l18-50.9l-10.8-30.4h-14.5L519,69.6L537,120.5z M547.4,69.6L537,98.8l-10.3-29.2L537,40.5
			L547.4,69.6z"/>
		<polygon fill="#897E74" points="501.3,62.3 512.3,39.2 504.3,39.2 495.9,56.8 467.9,70.2 481.3,42.2 487.6,39.2 474.7,39.2 
			452.6,85.6 		"/>
		<polygon fill="#897E74" points="621.5,85.6 599.3,39.2 586.4,39.2 592.8,42.2 606.1,70.2 578.2,56.8 569.8,39.2 561.8,39.2 
			572.7,62.3 		"/>
		<polygon fill="#897E74" points="506,76.1 537,164.1 568.1,76.1 652.3,116.4 615.4,39.2 607.4,39.2 636.9,101 564,66.1 537,142.4 
			510.1,66.1 437.2,101 466.7,39.2 458.7,39.2 421.8,116.3 		"/>
		<path fill="#897E74" d="M863,120.5l18-50.9l-10.8-30.4h-14.5L845,69.6L863,120.5z M873.3,69.6L863,98.8l-10.3-29.2L863,40.5
			L873.3,69.6z"/>
		<polygon fill="#897E74" points="947.4,85.6 925.3,39.2 912.4,39.2 918.7,42.2 932.1,70.2 904.1,56.8 895.7,39.2 887.7,39.2 
			898.7,62.3 		"/>
		<polygon fill="#897E74" points="827.3,62.3 838.2,39.2 830.2,39.2 821.8,56.8 793.9,70.2 807.2,42.2 813.6,39.2 800.7,39.2 
			778.5,85.6 		"/>
		<polygon fill="#897E74" points="831.9,76.1 863,164.1 894,76.1 978.2,116.4 941.3,39.2 933.3,39.2 962.8,101 889.9,66.1 
			863,142.4 836,66.1 763.1,101 792.6,39.2 784.6,39.2 747.7,116.3 		"/>
		<polygon fill="#897E74" points="1153.2,62.3 1164.2,39.2 1156.2,39.2 1147.8,56.8 1119.8,70.2 1133.2,42.2 1139.5,39.2 
			1126.6,39.2 1104.4,85.6 		"/>
		<polygon fill="#897E74" points="1273.3,85.6 1251.2,39.2 1238.3,39.2 1244.6,42.2 1258,70.2 1230,56.8 1221.6,39.2 1213.6,39.2 
			1224.6,62.3 		"/>
		<path fill="#897E74" d="M1188.9,120.5l18-50.9l-10.8-30.4h-14.5l-10.8,30.4L1188.9,120.5z M1199.2,69.6l-10.3,29.2l-10.3-29.2
			l10.3-29.1L1199.2,69.6z"/>
		<polygon fill="#897E74" points="1157.8,76.1 1188.9,164.1 1219.9,76.1 1304.1,116.4 1267.2,39.2 1259.2,39.2 1288.8,101 
			1215.8,66.1 1188.9,142.4 1162,66.1 1089,101 1118.5,39.2 1110.5,39.2 1073.6,116.3 		"/>
		<path fill="#897E74" d="M193,334.6l-0.4,0.8l-4.4,9.2L150,362.7l-23.3,48.7l48.7-23.3l18.3-38.3l9.9-4.7l3.7,10.4l-14.2,40
			l18,50.9l18-50.9l-14.2-40l3.7-10.4l9.9,4.7l18.3,38.3l48.7,23.3l-23.3-48.7L234,344.5l-4.7-9.9l10.4-3.7l40,14.2l50.9-18
			l-50.9-18l-40,14.2l-1.6-0.6l-8.8-3.1l4.7-9.9l34.8-16.6c2.3-1.1,4-1.9,4.3-3.5l22.4-46.9l-48.7,23.3l-18.3,38.3
			c-0.7,0.3-1.4,0.7-2.1,1c-0.9,0.4-1.8,0.9-2.6,1.3l-1.2,0.6c-0.2,0.1-0.4,0.2-0.6,0.3l-1.1,0.5c-0.7,0.3-1.4,0.7-2,0.9
			c-0.1,0-0.2,0.1-0.3,0.1c0,0,0,0,0,0l-3.7-10.4l14.2-40l-18-50.9l-18,50.9l14.2,40l-3.7,10.4l-4.9-2.3l-5-2.4l-18.3-38.3
			l-48.7-23.3l23.3,48.7l38.3,18.3l4.7,9.9l-8.3,2.9l-2.1,0.8l-40-14.2l-50.9,18l50.9,18l40-14.2L193,334.6z M170,382.8l-28,13.4
			l13.4-28l27.9-13.3L170,382.8z M266.8,368.2l13.4,28l-28-13.4l-13.3-27.9L266.8,368.2z M279.6,316.7l29.2,10.3l-29.2,10.3
			L250.5,327L279.6,316.7z M252.2,271.3l28-13.4l-13.4,28c-3.8,1.8-16.2,7.7-27.9,13.3L252.2,271.3z M155.4,285.9l-13.4-28l28,13.4
			l13.3,27.9L155.4,285.9z M221.4,395.5l-10.3,29.2l-10.3-29.2l10.3-29.1L221.4,395.5z M200.8,258.6l10.3-29.2l10.3,29.2l-10.3,29.1
			L200.8,258.6z M199.2,325L199.2,325l3.8-1.4l-4.3-9.1l5.5,2.6l0,0l3.6,1.7l1.3-3.8l2-5.7l2,5.7l1.3,3.8l3.6-1.7l0,0l5.5-2.6
			l-4.3,9.1l3.8,1.3l0,0l5.7,2l-9.5,3.4l1.7,3.7l0.1,0.2l2.5,5.2l-9.1-4.3l-3.4,9.5l-3.4-9.5l-9.1,4.3l2.5-5.2l0.1-0.2l1.7-3.7
			l-9.5-3.4L199.2,325z M142.6,337.4L113.4,327l29.2-10.3l29.1,10.3L142.6,337.4z"/>
		<path fill="#897E74" d="M95.9,442.3l84.2-40.2l31.1,88l0,0l0,0l31.1-88l84.2,40.2l-40.2-84.2l88-31.1l-88-31.1l40.2-84.2
			L242.2,252l-31.1-88l-31.1,88l-84.2-40.2l40.2,84.2l-88,31.1v0l88,31.1L95.9,442.3z M69.9,327l76.2-26.9l-34.9-73l73,34.9
			l26.9-76.2L238,262l73-34.9L279.5,293l0,0.1c-0.4,0.9-0.9,1.7-1.6,2.5l-3.4,4l77.8,27.5L276.1,354l34.9,73L238,392l-26.9,76.2
			L184.2,392l-73,34.9l34.9-73L69.9,327z"/>
		<path fill="#897E74" d="M518.9,334.6l-0.4,0.8l-4.4,9.2l-38.3,18.3l-23.3,48.7l48.7-23.3l18.3-38.3l9.9-4.7l3.7,10.4l-14.2,40
			l18,50.9l18-50.9l-14.2-40l3.7-10.4l9.9,4.7l18.3,38.3l48.7,23.3l-23.3-48.7l-38.3-18.3l-4.7-9.9l10.4-3.7l40,14.2l50.9-18
			l-50.9-18l-40,14.2l-1.6-0.6l-8.8-3.1l4.7-9.9l34.8-16.6c2.3-1.1,4-1.9,4.3-3.5l22.4-46.9l-48.7,23.3l-18.3,38.3
			c-0.7,0.3-1.4,0.7-2.1,1c-0.9,0.4-1.8,0.9-2.6,1.3l-1.2,0.6c-0.2,0.1-0.4,0.2-0.6,0.3l-1.1,0.5c-0.7,0.3-1.4,0.7-2,0.9
			c-0.1,0-0.2,0.1-0.3,0.1c0,0,0,0,0,0l-3.7-10.4l14.2-40l-18-50.9l-18,50.9l14.2,40l-3.7,10.4l-4.9-2.3l-5-2.4l-18.3-38.3
			l-48.7-23.3l23.3,48.7l38.3,18.3l4.7,9.9l-8.3,2.9l-2.1,0.8l-40-14.2l-50.9,18l50.9,18l40-14.2L518.9,334.6z M495.9,382.8
			l-28,13.4l13.4-28l27.9-13.3L495.9,382.8z M592.8,368.2l13.4,28l-28-13.4l-13.3-27.9L592.8,368.2z M605.5,316.7l29.2,10.3
			l-29.2,10.3L576.4,327L605.5,316.7z M578.2,271.3l28-13.4l-13.4,28c-3.8,1.8-16.2,7.7-27.9,13.3L578.2,271.3z M481.3,285.9
			l-13.4-28l28,13.4l13.3,27.9L481.3,285.9z M547.4,395.5L537,424.8l-10.3-29.2l10.3-29.1L547.4,395.5z M526.7,258.6l10.3-29.2
			l10.3,29.2L537,287.7L526.7,258.6z M525.1,325L525.1,325l3.8-1.4l-4.3-9.1l5.5,2.6l0,0l3.6,1.7l1.3-3.8l2-5.7l2,5.7l1.3,3.8
			l3.6-1.7l0,0l5.5-2.6l-4.3,9.1l3.8,1.3l0,0l5.7,2l-9.5,3.4l1.7,3.7l0.1,0.2l2.5,5.2l-9.1-4.3l-3.4,9.5l-3.4-9.5l-9.1,4.3l2.5-5.2
			l0.1-0.2l1.7-3.7l-9.5-3.4L525.1,325z M468.6,337.4L439.3,327l29.2-10.3l29.1,10.3L468.6,337.4z"/>
		<path fill="#897E74" d="M421.8,442.3L506,402l31.1,88l0,0l0,0l31.1-88l84.2,40.2L612,358.1l88-31.1L612,296l40.2-84.2L568.1,252
			l-31.1-88L506,252l-84.2-40.2L462,296l-88,31.1l88,31.1L421.8,442.3z M395.8,327l76.2-26.9l-34.9-73l73,34.9l26.9-76.2L564,262
			l73-34.9L605.5,293l0,0.1c-0.4,0.9-0.9,1.7-1.6,2.5l-3.4,4l77.8,27.5L602,354l34.9,73L564,392L537,468.3L510.1,392l-73,34.9
			l34.9-73L395.8,327z"/>
		<path fill="#897E74" d="M801.8,291.3l38.3,18.3l4.7,9.9l-8.3,2.9l-2.1,0.8l-40-14.2l-50.9,18l50.9,18l40-14.2l10.4,3.7l-0.4,0.8
			l-4.4,9.2l-38.3,18.3l-23.3,48.7l48.7-23.3l18.3-38.3l9.9-4.7l3.7,10.4l-14.2,40l18,50.9l18-50.9l-14.2-40l3.7-10.4l9.9,4.7
			l18.3,38.3l48.7,23.3l-23.3-48.7l-38.3-18.3l-4.7-9.9l10.4-3.7l40,14.2l50.9-18l-50.9-18l-40,14.2l-1.6-0.6l-8.8-3.1l4.7-9.9
			l34.8-16.6c2.3-1.1,4-1.9,4.3-3.5l22.4-46.9l-48.7,23.3l-18.3,38.3c-0.7,0.3-1.4,0.7-2.1,1c-0.9,0.4-1.8,0.9-2.6,1.3l-1.2,0.6
			c-0.2,0.1-0.4,0.2-0.6,0.3l-1.1,0.5c-0.7,0.3-1.4,0.7-2,0.9c-0.1,0-0.2,0.1-0.3,0.1c0,0,0,0,0,0l-3.7-10.4l14.2-40l-18-50.9
			l-18,50.9l14.2,40l-3.7,10.4l-4.9-2.3l-5-2.4l-18.3-38.3l-48.7-23.3L801.8,291.3z M794.5,337.4L765.2,327l29.2-10.3l29.1,10.3
			L794.5,337.4z M821.8,382.8l-28,13.4l13.4-28l27.9-13.3L821.8,382.8z M918.7,368.2l13.4,28l-28-13.4l-13.3-27.9L918.7,368.2z
			 M931.4,316.7l29.2,10.3l-29.2,10.3L902.3,327L931.4,316.7z M904.1,271.3l28-13.4l-13.4,28c-3.8,1.8-16.2,7.7-27.9,13.3
			L904.1,271.3z M873.3,395.5L863,424.8l-10.3-29.2l10.3-29.1L873.3,395.5z M852.6,258.6l10.3-29.2l10.3,29.2L863,287.7L852.6,258.6
			z M851,325L851,325l3.8-1.4l-4.3-9.1l5.5,2.6l0,0l3.6,1.7l1.3-3.8l2-5.7l2,5.7l1.3,3.8l3.6-1.7l0,0l5.5-2.6l-4.3,9.1l3.8,1.3l0,0
			l5.7,2l-9.5,3.4l1.7,3.7l0.1,0.2l2.5,5.2l-9.1-4.3l-3.4,9.5l-3.4-9.5l-9.1,4.3l2.5-5.2l0.1-0.2l1.7-3.7l-9.5-3.4L851,325z
			 M835.1,299.2l-27.9-13.3l-13.4-28l28,13.4L835.1,299.2z"/>
		<path fill="#897E74" d="M747.7,211.8L788,296L700,327l88,31.1l-40.2,84.2l84.2-40.2l31.1,88l0,0l0,0l31.1-88l84.2,40.2L938,358.1
			l88-31.1L938,296l40.2-84.2L894,252l-31.1-88l-31.1,88L747.7,211.8z M863,185.8l26.9,76.2l73-34.9L931.4,293l0,0.1
			c-0.4,0.9-0.9,1.7-1.6,2.5l-3.4,4l77.8,27.5L928,354l34.9,73l-73-34.9L863,468.3L836,392l-73,34.9l34.9-73L721.7,327l76.2-26.9
			l-34.9-73l73,34.9L863,185.8z"/>
		<path fill="#897E74" d="M1215.8,322.7l-8.8-3.1l4.7-9.9l34.8-16.6c2.3-1.1,4-1.9,4.3-3.5l22.4-46.9l-48.7,23.3l-18.3,38.3
			c-0.7,0.3-1.4,0.7-2.1,1c-0.9,0.4-1.8,0.9-2.6,1.3l-1.2,0.6c-0.2,0.1-0.4,0.2-0.6,0.3l-1.1,0.5c-0.7,0.3-1.4,0.7-2,0.9
			c-0.1,0-0.2,0.1-0.3,0.1c0,0,0,0,0,0l-3.7-10.4l14.2-40l-18-50.9l-18,50.9l14.2,40l-3.7,10.4l-4.9-2.3l-5-2.4l-18.3-38.3
			l-48.7-23.3l23.3,48.7l38.3,18.3l4.7,9.9l-8.3,2.9l-2.1,0.8l-40-14.2l-50.9,18l50.9,18l40-14.2l10.4,3.7l-0.4,0.8l-4.4,9.2
			l-38.3,18.3l-23.3,48.7l48.7-23.3l18.3-38.3l9.9-4.7l3.7,10.4l-14.2,40l18,50.9l18-50.9l-14.2-40l3.7-10.4l9.9,4.7l18.3,38.3
			l48.7,23.3l-23.3-48.7l-38.3-18.3l-4.7-9.9l10.4-3.7l40,14.2l50.9-18l-50.9-18l-40,14.2L1215.8,322.7z M1230,271.3l28-13.4
			l-13.4,28c-3.8,1.8-16.2,7.7-27.9,13.3L1230,271.3z M1133.2,285.9l-13.4-28l28,13.4l13.3,27.9L1133.2,285.9z M1120.4,337.4
			l-29.2-10.3l29.2-10.3l29.1,10.3L1120.4,337.4z M1147.8,382.8l-28,13.4l13.4-28l27.9-13.3L1147.8,382.8z M1244.6,368.2l13.4,28
			l-28-13.4l-13.3-27.9L1244.6,368.2z M1178.6,258.6l10.3-29.2l10.3,29.2l-10.3,29.1L1178.6,258.6z M1199.2,395.5l-10.3,29.2
			l-10.3-29.2l10.3-29.1L1199.2,395.5z M1197,330.4l1.7,3.7l0.1,0.2l2.5,5.2l-9.1-4.3l-3.4,9.5l-3.4-9.5l-9.1,4.3l2.5-5.2l0.1-0.2
			l1.7-3.7l-9.5-3.4l5.7-2l0,0l3.8-1.3l-4.3-9.1l5.5,2.6l0,0l3.6,1.7l1.3-3.8l2-5.7l2,5.7l1.3,3.8l3.6-1.7l0,0l5.5-2.6l-4.3,9.1
			l3.8,1.3l0,0l5.7,2L1197,330.4z M1257.4,316.7l29.2,10.3l-29.2,10.3l-29.1-10.3L1257.4,316.7z"/>
		<path fill="#897E74" d="M1304.1,211.8l-84.2,40.2l-31.1-88l-31.1,88l-84.2-40.2l40.2,84.2l-88,31.1l88,31.1l-40.2,84.2l84.2-40.2
			l31.1,88l0,0l0,0l31.1-88l84.2,40.2l-40.2-84.2l88-31.1v0l-88-31.1L1304.1,211.8z M1330.1,327l-76.2,26.9l34.9,73l-73-34.9
			l-26.9,76.2L1162,392l-73,34.9l34.9-73l-76.2-26.9l76.2-26.9l-34.9-73l73,34.9l26.9-76.2l26.9,76.2l73-34.9l-31.5,65.8l0,0.1
			c-0.4,0.9-0.9,1.7-1.6,2.5l-3.4,4L1330.1,327z"/>
		<path fill="#897E74" d="M193,660.5l-0.4,0.8l-4.4,9.2L150,688.7l-23.3,48.7l48.7-23.3l18.3-38.3l9.9-4.7l3.7,10.4l-14.2,40
			l18,50.9l18-50.9l-14.2-40l3.7-10.4l9.9,4.7l18.3,38.3l48.7,23.3l-23.3-48.7L234,670.4l-4.7-9.9l10.4-3.7l40,14.2l50.9-18
			l-50.9-18l-40,14.2l-1.6-0.6l-8.8-3.1l4.7-9.9l34.8-16.6c2.3-1.1,4-1.9,4.3-3.5l22.4-46.9l-48.7,23.3l-18.3,38.3
			c-0.7,0.3-1.4,0.7-2.1,1c-0.9,0.4-1.8,0.9-2.6,1.3l-1.2,0.6c-0.2,0.1-0.4,0.2-0.6,0.3l-1.1,0.5c-0.7,0.3-1.4,0.7-2,0.9
			c-0.1,0-0.2,0.1-0.3,0.1c0,0,0,0,0,0l-3.7-10.4l14.2-40l-18-50.9l-18,50.9l14.2,40l-3.7,10.4l-4.9-2.3l-5-2.4l-18.3-38.3
			l-48.7-23.3l23.3,48.7l38.3,18.3l4.7,9.9l-8.3,2.9l-2.1,0.8l-40-14.2l-50.9,18l50.9,18l40-14.2L193,660.5z M170,708.7l-28,13.4
			l13.4-28l27.9-13.3L170,708.7z M266.8,694.1l13.4,28l-28-13.4l-13.3-27.9L266.8,694.1z M279.6,642.6l29.2,10.3l-29.2,10.3
			L250.5,653L279.6,642.6z M252.2,597.2l28-13.4l-13.4,28c-3.8,1.8-16.2,7.7-27.9,13.3L252.2,597.2z M155.4,611.8l-13.4-28l28,13.4
			l13.3,27.9L155.4,611.8z M221.4,721.4l-10.3,29.2l-10.3-29.2l10.3-29.1L221.4,721.4z M200.8,584.5l10.3-29.2l10.3,29.2l-10.3,29.1
			L200.8,584.5z M199.2,650.9L199.2,650.9l3.8-1.4l-4.3-9.1l5.5,2.6l0,0l3.6,1.7l1.3-3.8l2-5.7l2,5.7l1.3,3.8l3.6-1.7l0,0l5.5-2.6
			l-4.3,9.1l3.8,1.3l0,0l5.7,2l-9.5,3.4l1.7,3.7l0.1,0.2l2.5,5.2l-9.1-4.3l-3.4,9.5l-3.4-9.5l-9.1,4.3l2.5-5.2l0.1-0.2l1.7-3.7
			l-9.5-3.4L199.2,650.9z M142.6,663.3L113.4,653l29.2-10.3l29.1,10.3L142.6,663.3z"/>
		<path fill="#897E74" d="M95.9,768.2l84.2-40.2l31.1,88l31.1-88l84.2,40.2L286.1,684l88-31.1l-88-31.1l40.2-84.2L242.2,578
			l-31.1-88l0,0l0,0l-31.1,88l-84.2-40.2l40.2,84.2l-88,31.1v0l88,31.1L95.9,768.2z M69.9,653l76.2-26.9l-34.9-73l73,34.9l26.9-76.2
			L238,588l73-34.9l-31.5,65.8l0,0.1c-0.4,0.9-0.9,1.7-1.6,2.5l-3.4,4l77.8,27.5l-76.2,26.9l34.9,73L238,718l-26.9,76.2L184.2,718
			l-73,34.9l34.9-73L69.9,653z"/>
		<path fill="#897E74" d="M564,648.6l-8.8-3.1l4.7-9.9l34.8-16.6c2.3-1.1,4-1.9,4.3-3.5l22.4-46.9l-48.7,23.3l-18.3,38.3
			c-0.7,0.3-1.4,0.7-2.1,1c-0.9,0.4-1.8,0.9-2.6,1.3l-1.2,0.6c-0.2,0.1-0.4,0.2-0.6,0.3l-1.1,0.5c-0.7,0.3-1.4,0.7-2,0.9
			c-0.1,0-0.2,0.1-0.3,0.1c0,0,0,0,0,0l-3.7-10.4l14.2-40l-18-50.9l-18,50.9l14.2,40l-3.7,10.4l-4.9-2.3l-5-2.4l-18.3-38.3
			l-48.7-23.3l23.3,48.7l38.3,18.3l4.7,9.9l-8.3,2.9l-2.1,0.8l-40-14.2l-50.9,18l50.9,18l40-14.2l10.4,3.7l-0.4,0.8l-4.4,9.2
			l-38.3,18.3l-23.3,48.7l48.7-23.3l18.3-38.3l9.9-4.7l3.7,10.4l-14.2,40l18,50.9l18-50.9l-14.2-40l3.7-10.4l9.9,4.7l18.3,38.3
			l48.7,23.3l-23.3-48.7l-38.3-18.3l-4.7-9.9l10.4-3.7l40,14.2l50.9-18l-50.9-18l-40,14.2L564,648.6z M578.2,597.2l28-13.4l-13.4,28
			c-3.8,1.8-16.2,7.7-27.9,13.3L578.2,597.2z M481.3,611.8l-13.4-28l28,13.4l13.3,27.9L481.3,611.8z M468.6,663.3L439.3,653
			l29.2-10.3l29.1,10.3L468.6,663.3z M495.9,708.7l-28,13.4l13.4-28l27.9-13.3L495.9,708.7z M592.8,694.1l13.4,28l-28-13.4
			l-13.3-27.9L592.8,694.1z M526.7,584.5l10.3-29.2l10.3,29.2L537,613.6L526.7,584.5z M547.4,721.4L537,750.7l-10.3-29.2l10.3-29.1
			L547.4,721.4z M545.2,656.3l1.7,3.7l0.1,0.2l2.5,5.2l-9.1-4.3l-3.4,9.5l-3.4-9.5l-9.1,4.3l2.5-5.2l0.1-0.2l1.7-3.7l-9.5-3.4l5.7-2
			l0,0l3.8-1.3l-4.3-9.1l5.5,2.6l0,0l3.6,1.7l1.3-3.8l2-5.7l2,5.7l1.3,3.8l3.6-1.7l0,0l5.5-2.6l-4.3,9.1l3.8,1.3l0,0l5.7,2
			L545.2,656.3z M605.5,642.6l29.2,10.3l-29.2,10.3L576.4,653L605.5,642.6z"/>
		<path fill="#897E74" d="M652.3,537.7L568.1,578L537,490l0,0l0,0L506,578l-84.2-40.2l40.2,84.2l-88,31.1l88,31.1l-40.2,84.2
			L506,728l31.1,88l31.1-88l84.2,40.2L612,684l88-31.1l-88-31.1L652.3,537.7z M678.3,653L602,679.9l34.9,73L564,718L537,794.2
			L510.1,718l-73,34.9l34.9-73L395.8,653L472,626l-34.9-73l73,34.9l26.9-76.2L564,588l73-34.9l-31.5,65.8l0,0.1
			c-0.4,0.9-0.9,1.7-1.6,2.5l-3.4,4L678.3,653z"/>
		<path fill="#897E74" d="M863,533.5l-18,50.9l14.2,40l-3.7,10.4l-4.9-2.3l-5-2.4l-18.3-38.3l-48.7-23.3l23.3,48.7l38.3,18.3
			l4.7,9.9l-8.3,2.9l-2.1,0.8l-40-14.2l-50.9,18l50.9,18l40-14.2l10.4,3.7l-0.4,0.8l-4.4,9.2l-38.3,18.3l-23.3,48.7l48.7-23.3
			l18.3-38.3l9.9-4.7l3.7,10.4l-14.2,40l18,50.9l18-50.9l-14.2-40l3.7-10.4l9.9,4.7l18.3,38.3l48.7,23.3l-23.3-48.7l-38.3-18.3
			l-4.7-9.9l10.4-3.7l40,14.2l50.9-18l-50.9-18l-40,14.2l-1.6-0.6l-8.8-3.1l4.7-9.9l34.8-16.6c2.3-1.1,4-1.9,4.3-3.5l22.4-46.9
			l-48.7,23.3l-18.3,38.3c-0.7,0.3-1.4,0.7-2.1,1c-0.9,0.4-1.8,0.9-2.6,1.3l-1.2,0.6c-0.2,0.1-0.4,0.2-0.6,0.3l-1.1,0.5
			c-0.7,0.3-1.4,0.7-2,0.9c-0.1,0-0.2,0.1-0.3,0.1c0,0,0,0,0,0l-3.7-10.4l14.2-40L863,533.5z M807.2,611.8l-13.4-28l28,13.4
			l13.3,27.9L807.2,611.8z M794.5,663.3L765.2,653l29.2-10.3l29.1,10.3L794.5,663.3z M821.8,708.7l-28,13.4l13.4-28l27.9-13.3
			L821.8,708.7z M918.7,694.1l13.4,28l-28-13.4l-13.3-27.9L918.7,694.1z M931.4,642.6l29.2,10.3l-29.2,10.3L902.3,653L931.4,642.6z
			 M904.1,597.2l28-13.4l-13.4,28c-3.8,1.8-16.2,7.7-27.9,13.3L904.1,597.2z M873.3,721.4L863,750.7l-10.3-29.2l10.3-29.1
			L873.3,721.4z M870,643.1L870,643.1l5.5-2.6l-4.3,9.1l3.8,1.3l0,0l5.7,2l-9.5,3.4l1.7,3.7l0.1,0.2l2.5,5.2l-9.1-4.3l-3.4,9.5
			l-3.4-9.5l-9.1,4.3l2.5-5.2l0.1-0.2l1.7-3.7l-9.5-3.4l5.7-2l0,0l3.8-1.3l-4.3-9.1l5.5,2.6l0,0l3.6,1.7l1.3-3.8l2-5.7l2,5.7
			l1.3,3.8L870,643.1z M863,613.6l-10.3-29.1l10.3-29.2l10.3,29.2L863,613.6z"/>
		<path fill="#897E74" d="M863,490l-31.1,88l-84.2-40.2l40.2,84.2L700,653l88,31.1l-40.2,84.2l84.2-40.2l31.1,88l31.1-88l84.2,40.2
			L938,684l88-31.1l-88-31.1l40.2-84.2L894,578L863,490L863,490L863,490z M962.8,553.1l-31.5,65.8l0,0.1c-0.4,0.9-0.9,1.7-1.6,2.5
			l-3.4,4l77.8,27.5L928,679.9l34.9,73l-73-34.9L863,794.2L836,718l-73,34.9l34.9-73L721.7,653L798,626l-34.9-73l73,34.9l26.9-76.2
			l26.9,76.2L962.8,553.1z"/>
		<path fill="#897E74" d="M1215.8,648.6l-8.8-3.1l4.7-9.9l34.8-16.6c2.3-1.1,4-1.9,4.3-3.5l22.4-46.9l-48.7,23.3l-18.3,38.3
			c-0.7,0.3-1.4,0.7-2.1,1c-0.9,0.4-1.8,0.9-2.6,1.3l-1.2,0.6c-0.2,0.1-0.4,0.2-0.6,0.3l-1.1,0.5c-0.7,0.3-1.4,0.7-2,0.9
			c-0.1,0-0.2,0.1-0.3,0.1c0,0,0,0,0,0l-3.7-10.4l14.2-40l-18-50.9l-18,50.9l14.2,40l-3.7,10.4l-4.9-2.3l-5-2.4l-18.3-38.3
			l-48.7-23.3l23.3,48.7l38.3,18.3l4.7,9.9l-8.3,2.9l-2.1,0.8l-40-14.2l-50.9,18l50.9,18l40-14.2l10.4,3.7l-0.4,0.8l-4.4,9.2
			l-38.3,18.3l-23.3,48.7l48.7-23.3l18.3-38.3l9.9-4.7l3.7,10.4l-14.2,40l18,50.9l18-50.9l-14.2-40l3.7-10.4l9.9,4.7l18.3,38.3
			l48.7,23.3l-23.3-48.7l-38.3-18.3l-4.7-9.9l10.4-3.7l40,14.2l50.9-18l-50.9-18l-40,14.2L1215.8,648.6z M1230,597.2l28-13.4
			l-13.4,28c-3.8,1.8-16.2,7.7-27.9,13.3L1230,597.2z M1133.2,611.8l-13.4-28l28,13.4l13.3,27.9L1133.2,611.8z M1120.4,663.3
			l-29.2-10.3l29.2-10.3l29.1,10.3L1120.4,663.3z M1147.8,708.7l-28,13.4l13.4-28l27.9-13.3L1147.8,708.7z M1244.6,694.1l13.4,28
			l-28-13.4l-13.3-27.9L1244.6,694.1z M1178.6,584.5l10.3-29.2l10.3,29.2l-10.3,29.1L1178.6,584.5z M1199.2,721.4l-10.3,29.2
			l-10.3-29.2l10.3-29.1L1199.2,721.4z M1197,656.3l1.7,3.7l0.1,0.2l2.5,5.2l-9.1-4.3l-3.4,9.5l-3.4-9.5l-9.1,4.3l2.5-5.2l0.1-0.2
			l1.7-3.7l-9.5-3.4l5.7-2l0,0l3.8-1.3l-4.3-9.1l5.5,2.6l0,0l3.6,1.7l1.3-3.8l2-5.7l2,5.7l1.3,3.8l3.6-1.7l0,0l5.5-2.6l-4.3,9.1
			l3.8,1.3l0,0l5.7,2L1197,656.3z M1257.4,642.6l29.2,10.3l-29.2,10.3l-29.1-10.3L1257.4,642.6z"/>
		<path fill="#897E74" d="M1304.1,537.7l-84.2,40.2l-31.1-88l0,0l0,0l-31.1,88l-84.2-40.2l40.2,84.2l-88,31.1l88,31.1l-40.2,84.2
			l84.2-40.2l31.1,88l31.1-88l84.2,40.2l-40.2-84.2l88-31.1v0l-88-31.1L1304.1,537.7z M1330.1,653l-76.2,26.9l34.9,73l-73-34.9
			l-26.9,76.2L1162,718l-73,34.9l34.9-73l-76.2-26.9l76.2-26.9l-34.9-73l73,34.9l26.9-76.2l26.9,76.2l73-34.9l-31.5,65.8l0,0.1
			c-0.4,0.9-0.9,1.7-1.6,2.5l-3.4,4L1330.1,653z"/>
		<polygon fill="#897E74" points="211.1,859.5 193.1,910.4 201,932.6 208.7,932.6 200.8,910.4 211.1,881.2 221.4,910.4 213.6,932.6 
			221.2,932.6 229.1,910.4 		"/>
		<polygon fill="#897E74" points="126.7,894.4 144.9,932.6 152.9,932.6 142,909.8 170,923.2 174.5,932.6 182.5,932.6 175.4,917.7 		
			"/>
		<polygon fill="#897E74" points="246.8,917.7 239.7,932.6 247.7,932.6 252.2,923.2 280.2,909.8 269.3,932.6 277.3,932.6 
			295.6,894.4 		"/>
		<polygon fill="#897E74" points="242.2,903.9 211.1,815.9 180.1,903.9 95.9,863.6 128.9,932.6 136.9,932.6 111.2,879 184.2,913.9 
			211.1,837.6 238,913.9 311,879 285.4,932.6 293.4,932.6 326.3,863.7 		"/>
		<polygon fill="#897E74" points="572.7,917.7 565.6,932.6 573.7,932.6 578.2,923.2 606.1,909.8 595.2,932.6 603.2,932.6 
			621.5,894.4 		"/>
		<polygon fill="#897E74" points="537,859.5 519,910.4 526.9,932.6 534.6,932.6 526.7,910.4 537,881.2 547.4,910.4 539.5,932.6 
			547.2,932.6 555,910.4 		"/>
		<polygon fill="#897E74" points="452.6,894.4 470.8,932.6 478.9,932.6 467.9,909.8 495.9,923.2 500.4,932.6 508.4,932.6 
			501.3,917.7 		"/>
		<polygon fill="#897E74" points="568.1,903.9 537,815.9 506,903.9 421.8,863.6 454.8,932.6 462.8,932.6 437.2,879 510.1,913.9 
			537,837.6 564,913.9 636.9,879 611.3,932.6 619.3,932.6 652.3,863.7 		"/>
		<polygon fill="#897E74" points="778.5,894.4 796.8,932.6 804.8,932.6 793.9,909.8 821.8,923.2 826.3,932.6 834.4,932.6 
			827.3,917.7 		"/>
		<polygon fill="#897E74" points="898.7,917.7 891.6,932.6 899.6,932.6 904.1,923.2 932.1,909.8 921.1,932.6 929.2,932.6 
			947.4,894.4 		"/>
		<polygon fill="#897E74" points="863,859.5 845,910.4 852.8,932.6 860.5,932.6 852.6,910.4 863,881.2 873.3,910.4 865.4,932.6 
			873.1,932.6 880.9,910.4 		"/>
		<polygon fill="#897E74" points="894,903.9 863,815.9 831.9,903.9 747.7,863.6 780.7,932.6 788.7,932.6 763.1,879 836,913.9 
			863,837.6 889.9,913.9 962.8,879 937.2,932.6 945.2,932.6 978.2,863.7 		"/>
		<polygon fill="#897E74" points="1224.6,917.7 1217.5,932.6 1225.5,932.6 1230,923.2 1258,909.8 1247.1,932.6 1255.1,932.6 
			1273.3,894.4 		"/>
		<polygon fill="#897E74" points="1188.9,859.5 1170.9,910.4 1178.8,932.6 1186.4,932.6 1178.6,910.4 1188.9,881.2 1199.2,910.4 
			1191.3,932.6 1199,932.6 1206.9,910.4 		"/>
		<polygon fill="#897E74" points="1104.4,894.4 1122.7,932.6 1130.7,932.6 1119.8,909.8 1147.8,923.2 1152.3,932.6 1160.3,932.6 
			1153.2,917.7 		"/>
		<polygon fill="#897E74" points="1162,913.9 1188.9,837.6 1215.8,913.9 1288.8,879 1263.1,932.6 1271.1,932.6 1304.1,863.7 
			1219.9,903.9 1188.9,815.9 1157.8,903.9 1073.6,863.6 1106.6,932.6 1114.6,932.6 1089,879 		"/>
		<polygon fill="#897E74" points="56.5,172.4 48.2,168.5 48.2,168.5 48.2,173.7 99.8,284.5 48.2,301.1 48.2,309.6 111,289.4 		"/>
		<polygon fill="#897E74" points="57.7,164.1 168.6,112.5 185.1,164.1 168.6,215.7 57.7,164.1 48.2,168.5 56.5,172.4 173.5,226.9 
			193.7,164.1 173.5,101.2 56.5,155.7 110.8,39.2 85.9,39.2 99.8,43.7 48.2,154.5 48.2,159.6 		"/>
		<polygon fill="#897E74" points="57.7,164.1 57.7,164.1 57.7,164.1 48.2,159.6 48.2,168.5 48.2,168.5 		"/>
		<path fill="#897E74" d="M365.7,172.4l-54.5,116.9l62.8,20.2l62.8-20.2l-54.5-116.9l-8.4-3.9L365.7,172.4z M374.1,301.1l-51.6-16.6
			l51.6-110.8l51.6,110.8L374.1,301.1z"/>
		<polygon fill="#897E74" points="383.7,164.1 494.5,112.5 511.1,164.1 494.5,215.7 383.7,164.1 374.1,168.5 382.4,172.4 
			499.4,226.9 519.6,164.1 499.4,101.2 382.4,155.7 436.7,39.2 411.9,39.2 425.7,43.7 374.1,154.5 322.5,43.7 336.3,39.2 
			311.5,39.2 365.7,155.7 		"/>
		<path fill="#897E74" d="M383.7,164.1L383.7,164.1L383.7,164.1l-17.9-8.4l-116.9-54.5l-20.2,62.8l20.2,62.8l116.9-54.5l8.4-3.9
			L383.7,164.1z M253.7,215.7l-16.6-51.6l16.6-51.6l110.8,51.6L253.7,215.7z"/>
		<path fill="#897E74" d="M691.6,172.4l-54.5,116.9l62.8,20.2l62.8-20.2l-54.5-116.9l-8.4-3.9L691.6,172.4z M700,301.1l-51.6-16.6
			L700,173.7l51.6,110.8L700,301.1z"/>
		<polygon fill="#897E74" points="709.6,164.1 820.4,112.5 837,164.1 820.4,215.7 709.6,164.1 700,168.5 708.4,172.4 825.3,226.9 
			845.5,164.1 825.3,101.2 708.4,155.7 762.6,39.2 737.8,39.2 751.6,43.7 700,154.5 648.4,43.7 662.2,39.2 637.4,39.2 691.6,155.7 
					"/>
		<path fill="#897E74" d="M709.6,164.1L709.6,164.1L709.6,164.1l-17.9-8.4l-116.9-54.5l-20.2,62.8l20.2,62.8l116.9-54.5l8.4-3.9
			L709.6,164.1z M579.6,215.7L563,164.1l16.6-51.6l110.8,51.6L579.6,215.7z"/>
		<path fill="#897E74" d="M1017.6,172.4l-54.5,116.9l62.8,20.2l62.8-20.2l-54.5-116.9l-8.4-3.9L1017.6,172.4z M1025.9,301.1
			l-51.6-16.6l51.6-110.8l51.6,110.8L1025.9,301.1z"/>
		<polygon fill="#897E74" points="1035.5,164.1 1146.3,112.5 1162.9,164.1 1146.3,215.7 1035.5,164.1 1025.9,168.5 1034.3,172.4 
			1151.2,226.9 1171.4,164.1 1151.2,101.2 1034.3,155.7 1088.5,39.2 1063.7,39.2 1077.5,43.7 1025.9,154.5 974.3,43.7 988.1,39.2 
			963.3,39.2 1017.6,155.7 		"/>
		<path fill="#897E74" d="M1035.5,164.1L1035.5,164.1L1035.5,164.1l-17.9-8.4l-116.9-54.5l-20.2,62.8l20.2,62.8l116.9-54.5l8.4-3.9
			L1035.5,164.1z M905.5,215.7l-16.6-51.6l16.6-51.6l110.8,51.6L905.5,215.7z"/>
		<polygon fill="#897E74" points="1289,289.4 1351.8,309.6 1351.8,301.1 1300.2,284.5 1351.8,173.7 1351.8,168.5 1343.5,172.4 		"/>
		<polygon fill="#897E74" points="1351.8,159.6 1351.8,154.5 1300.2,43.7 1314.1,39.2 1289.2,39.2 1343.5,155.7 		"/>
		<path fill="#897E74" d="M1343.5,155.7l-116.9-54.5l-20.2,62.8l20.2,62.8l116.9-54.5l8.4-3.9v-8.9L1343.5,155.7z M1231.4,215.7
			l-16.6-51.6l16.6-51.6l110.8,51.6L1231.4,215.7z"/>
		<polygon fill="#897E74" points="56.5,498.4 48.2,494.5 48.2,499.6 99.8,610.4 48.2,627 48.2,635.5 111,615.3 		"/>
		<polygon fill="#897E74" points="173.5,552.8 193.7,490 173.5,427.2 56.5,481.6 111,364.7 48.2,344.5 48.2,353 99.8,369.6 
			48.2,480.4 48.2,485.5 57.7,490 168.6,438.4 185.1,490 168.6,541.6 57.7,490 48.2,494.5 48.2,494.5 56.5,498.4 		"/>
		<polygon fill="#897E74" points="57.7,490 48.2,485.5 48.2,494.5 		"/>
		<path fill="#897E74" d="M382.4,498.4l-8.4-3.9l-2.5,1.2l-5.9,2.7l-54.5,116.9l62.8,20.2l62.8-20.2L382.4,498.4z M322.5,610.4
			l51.6-110.8l51.6,110.8L374.1,627L322.5,610.4z"/>
		<path fill="#897E74" d="M383.7,490l110.8-51.6l16.6,51.6l-16.6,51.6L383.7,490l-12.1,5.6l2.5-1.2l8.4,3.9l116.9,54.5l20.2-62.8
			l-20.2-62.8l-116.9,54.5l54.5-116.9l-62.8-20.2l-62.8,20.2l54.5,116.9L383.7,490z M374.1,353l51.6,16.6l-51.6,110.8l-51.6-110.8
			L374.1,353z"/>
		<path fill="#897E74" d="M383.7,490l-17.9-8.4l-116.9-54.5L228.6,490l20.2,62.8l116.9-54.5l5.9-2.7L383.7,490z M253.7,541.6
			L237.1,490l16.6-51.6L364.5,490L253.7,541.6z"/>
		<path fill="#897E74" d="M708.4,498.4l-8.4-3.9l-2.5,1.2l-5.9,2.7l-54.5,116.9l62.8,20.2l62.8-20.2L708.4,498.4z M648.4,610.4
			L700,499.6l51.6,110.8L700,627L648.4,610.4z"/>
		<path fill="#897E74" d="M709.6,490l110.8-51.6L837,490l-16.6,51.6L709.6,490l-12.1,5.6l2.5-1.2l8.4,3.9l116.9,54.5l20.2-62.8
			l-20.2-62.8l-116.9,54.5l54.5-116.9L700,344.5l-62.8,20.2l54.5,116.9L709.6,490z M700,353l51.6,16.6L700,480.4l-51.6-110.8
			L700,353z"/>
		<path fill="#897E74" d="M709.6,490l-17.9-8.4l-116.9-54.5L554.5,490l20.2,62.8l116.9-54.5l5.9-2.7L709.6,490z M579.6,541.6
			L563,490l16.6-51.6L690.4,490L579.6,541.6z"/>
		<path fill="#897E74" d="M1088.8,615.3l-54.5-116.9l-8.4-3.9l-8.4,3.9l0,0l0,0l-54.5,116.9l62.8,20.2L1088.8,615.3z M1025.9,499.6
			l51.6,110.8l-51.6,16.6l-51.6-16.6L1025.9,499.6z"/>
		<path fill="#897E74" d="M1035.5,490l110.8-51.6l16.6,51.6l-16.6,51.6L1035.5,490l-17.9,8.4l0,0l8.4-3.9l8.4,3.9l116.9,54.5
			l20.2-62.8l-20.2-62.8l-116.9,54.5l54.5-116.9l-62.8-20.2l-62.8,20.2l54.5,116.9L1035.5,490z M1025.9,353l51.6,16.6l-51.6,110.8
			l-51.6-110.8L1025.9,353z"/>
		<path fill="#897E74" d="M1035.5,490l-17.9-8.4l-116.9-54.5L880.4,490l20.2,62.8l116.9-54.5l0,0L1035.5,490z M905.5,541.6
			L888.9,490l16.6-51.6l110.8,51.6L905.5,541.6z"/>
		<polygon fill="#897E74" points="1289,615.3 1351.8,635.5 1351.8,627 1300.2,610.4 1351.8,499.6 1351.8,494.5 1343.5,498.4 		"/>
		<polygon fill="#897E74" points="1343.5,498.4 1343.5,498.4 1343.5,498.4 1351.8,494.5 1351.8,494.5 		"/>
		<polygon fill="#897E74" points="1343.5,481.6 1351.8,485.5 1351.8,480.4 1300.2,369.6 1351.8,353 1351.8,344.5 1289,364.7 		"/>
		<path fill="#897E74" d="M1343.5,481.6l-116.9-54.5l-20.2,62.8l20.2,62.8l116.9-54.5l8.4-3.9v-8.9L1343.5,481.6z M1231.4,541.6
			l-16.6-51.6l16.6-51.6l110.8,51.6L1231.4,541.6z"/>
		<polygon fill="#897E74" points="48.2,820.4 48.2,825.5 98.1,932.6 107,932.6 56.5,824.3 		"/>
		<polygon fill="#897E74" points="173.5,878.8 193.7,815.9 173.5,753.1 56.5,807.6 111,690.6 48.2,670.4 48.2,678.9 99.8,695.5 
			48.2,806.3 48.2,811.5 57.7,815.9 168.6,764.3 185.1,815.9 168.6,867.5 57.7,815.9 48.2,820.4 48.2,820.4 56.5,824.3 		"/>
		<polygon fill="#897E74" points="57.7,815.9 48.2,811.5 48.2,820.4 		"/>
		<polygon fill="#897E74" points="374.1,820.4 371.6,821.5 365.7,824.3 315.3,932.6 324.2,932.6 374.1,825.5 424,932.6 432.9,932.6 
			382.4,824.3 		"/>
		<path fill="#897E74" d="M383.7,815.9l110.8-51.6l16.6,51.6l-16.6,51.6L383.7,815.9l-12.1,5.6l2.5-1.2l8.4,3.9l116.9,54.5
			l20.2-62.8l-20.2-62.8l-116.9,54.5l54.5-116.9l-62.8-20.2l-62.8,20.2l54.5,116.9L383.7,815.9z M374.1,678.9l51.6,16.6l-51.6,110.8
			l-51.6-110.8L374.1,678.9z"/>
		<path fill="#897E74" d="M383.7,815.9l-17.9-8.4l-116.9-54.5l-20.2,62.8l20.2,62.8l116.9-54.5l5.9-2.7L383.7,815.9z M253.7,867.5
			l-16.6-51.6l16.6-51.6l110.8,51.6L253.7,867.5z"/>
		<polygon fill="#897E74" points="700,820.4 697.5,821.5 691.6,824.3 641.2,932.6 650.1,932.6 700,825.5 749.9,932.6 758.8,932.6 
			708.4,824.3 		"/>
		<path fill="#897E74" d="M709.6,815.9l110.8-51.6l16.6,51.6l-16.6,51.6L709.6,815.9l-12.1,5.6l2.5-1.2l8.4,3.9l116.9,54.5
			l20.2-62.8l-20.2-62.8l-116.9,54.5l54.5-116.9L700,670.4l-62.8,20.2l54.5,116.9L709.6,815.9z M700,678.9l51.6,16.6L700,806.3
			l-51.6-110.8L700,678.9z"/>
		<path fill="#897E74" d="M709.6,815.9l-17.9-8.4l-116.9-54.5l-20.2,62.8l20.2,62.8l116.9-54.5l5.9-2.7L709.6,815.9z M579.6,867.5
			L563,815.9l16.6-51.6l110.8,51.6L579.6,867.5z"/>
		<polygon fill="#897E74" points="1025.9,820.4 1022.1,822.2 1017.6,824.3 967.1,932.6 976,932.6 1025.9,825.5 1075.8,932.6 
			1084.7,932.6 1034.3,824.3 		"/>
		<path fill="#897E74" d="M1035.5,815.9l110.8-51.6l16.6,51.6l-16.6,51.6L1035.5,815.9l-13.4,6.2l3.8-1.8l8.4,3.9l116.9,54.5
			l20.2-62.8l-20.2-62.8l-116.9,54.5l54.5-116.9l-62.8-20.2l-62.8,20.2l54.5,116.9L1035.5,815.9z M1025.9,678.9l51.6,16.6
			l-51.6,110.8l-51.6-110.8L1025.9,678.9z"/>
		<path fill="#897E74" d="M1035.5,815.9l-17.9-8.4l-116.9-54.5l-20.2,62.8l20.2,62.8l116.9-54.5l4.5-2.1L1035.5,815.9z M905.5,867.5
			l-16.6-51.6l16.6-51.6l110.8,51.6L905.5,867.5z"/>
		<polygon fill="#897E74" points="1343.5,824.3 1293,932.6 1301.9,932.6 1351.8,825.5 1351.8,820.4 1350.2,821.2 		"/>
		<polygon fill="#897E74" points="1343.5,807.6 1351.8,811.5 1351.8,806.3 1300.2,695.5 1351.8,678.9 1351.8,670.4 1289,690.6 		"/>
		<polygon fill="#897E74" points="1351.8,820.4 1351.8,820.4 1350.2,821.2 		"/>
		<path fill="#897E74" d="M1343.5,807.6l-116.9-54.5l-20.2,62.8l20.2,62.8l116.9-54.5l6.7-3.1l1.7-0.8v-8.9L1343.5,807.6z
			 M1231.4,867.5l-16.6-51.6l16.6-51.6l110.8,51.6L1231.4,867.5z"/>
		<polygon fill="#897E74" points="48.2,201 48.2,220.2 72.6,272.6 48.2,280.4 48.2,288.9 83.8,277.5 		"/>
		<polygon fill="#897E74" points="48.2,247.6 48.2,247.6 48.2,268.3 56.5,265.6 		"/>
		<path fill="#897E74" d="M161.6,128.5l-76.4,35.6l76.4,35.6l11.4-35.6L161.6,128.5z M156.7,188.5l-52.4-24.4l52.4-24.4l7.8,24.4
			L156.7,188.5z"/>
		<polygon fill="#897E74" points="48.2,39.2 48.2,47.7 72.6,55.6 48.2,107.9 48.2,127.1 83.8,50.7 		"/>
		<polygon fill="#897E74" points="131.7,164.1 149.7,172.5 152.4,164.1 149.7,155.7 		"/>
		<polygon fill="#897E74" points="56.5,62.6 48.2,59.9 48.2,80.6 48.2,80.6 		"/>
		<path fill="#897E74" d="M338.5,277.5l35.6,11.4l35.6-11.4L374.1,201L338.5,277.5z M374.1,280.4l-24.4-7.8l24.4-52.4l24.4,52.4
			L374.1,280.4z"/>
		<polygon fill="#897E74" points="365.7,265.6 374.1,268.3 382.5,265.6 374.1,247.6 		"/>
		<path fill="#897E74" d="M498.9,164.1l-11.4-35.6L411,164.1l76.4,35.6L498.9,164.1z M430.2,164.1l52.4-24.4l7.8,24.4l-7.8,24.4
			L430.2,164.1z"/>
		<path fill="#897E74" d="M374.1,127.1l35.6-76.4l-35.6-11.4l-35.6,11.4L374.1,127.1z M398.5,55.6l-24.4,52.4l-24.4-52.4l24.4-7.8
			L398.5,55.6z"/>
		<polygon fill="#897E74" points="457.6,164.1 475.6,172.5 478.3,164.1 475.6,155.7 		"/>
		<polygon fill="#897E74" points="374.1,80.6 382.5,62.6 374.1,59.9 365.7,62.6 		"/>
		<path fill="#897E74" d="M260.7,199.7l76.4-35.6l-76.4-35.6l-11.4,35.6L260.7,199.7z M265.6,139.7l52.4,24.4l-52.4,24.4l-7.8-24.4
			L265.6,139.7z"/>
		<polygon fill="#897E74" points="290.6,164.1 272.6,155.7 269.9,164.1 272.6,172.5 		"/>
		<path fill="#897E74" d="M664.4,277.5l35.6,11.4l35.6-11.4L700,201L664.4,277.5z M700,280.4l-24.4-7.8l24.4-52.4l24.4,52.4
			L700,280.4z"/>
		<polygon fill="#897E74" points="691.6,265.6 700,268.3 708.4,265.6 700,247.6 		"/>
		<path fill="#897E74" d="M824.8,164.1l-11.4-35.6L737,164.1l76.4,35.6L824.8,164.1z M756.1,164.1l52.4-24.4l7.8,24.4l-7.8,24.4
			L756.1,164.1z"/>
		<path fill="#897E74" d="M700,127.1l35.6-76.4L700,39.2l-35.6,11.4L700,127.1z M724.4,55.6L700,107.9l-24.4-52.4l24.4-7.8
			L724.4,55.6z"/>
		<polygon fill="#897E74" points="783.5,164.1 801.5,172.5 804.2,164.1 801.5,155.7 		"/>
		<polygon fill="#897E74" points="700,80.6 708.4,62.6 700,59.9 691.6,62.6 		"/>
		<path fill="#897E74" d="M586.6,199.7l76.4-35.6l-76.4-35.6l-11.4,35.6L586.6,199.7z M591.5,139.7l52.4,24.4l-52.4,24.4l-7.8-24.4
			L591.5,139.7z"/>
		<polygon fill="#897E74" points="616.5,164.1 598.5,155.7 595.8,164.1 598.5,172.5 		"/>
		<path fill="#897E74" d="M990.3,277.5l35.6,11.4l35.6-11.4l-35.6-76.4L990.3,277.5z M1025.9,280.4l-24.4-7.8l24.4-52.4l24.4,52.4
			L1025.9,280.4z"/>
		<polygon fill="#897E74" points="1025.9,268.3 1034.3,265.6 1025.9,247.6 1017.5,265.6 		"/>
		<path fill="#897E74" d="M1150.8,164.1l-11.4-35.6l-76.4,35.6l76.4,35.6L1150.8,164.1z M1082.1,164.1l52.4-24.4l7.8,24.4l-7.8,24.4
			L1082.1,164.1z"/>
		<path fill="#897E74" d="M1025.9,127.1l35.6-76.4l-35.6-11.4l-35.6,11.4L1025.9,127.1z M1050.3,55.6l-24.4,52.4l-24.4-52.4
			l24.4-7.8L1050.3,55.6z"/>
		<polygon fill="#897E74" points="1025.9,80.6 1034.3,62.6 1025.9,59.9 1017.5,62.6 		"/>
		<polygon fill="#897E74" points="1109.4,164.1 1127.4,172.5 1130.1,164.1 1127.4,155.7 		"/>
		<path fill="#897E74" d="M912.5,199.7l76.4-35.6l-76.4-35.6l-11.4,35.6L912.5,199.7z M917.4,139.7l52.4,24.4l-52.4,24.4l-7.8-24.4
			L917.4,139.7z"/>
		<polygon fill="#897E74" points="942.4,164.1 924.4,155.7 921.7,164.1 924.4,172.5 		"/>
		<polygon fill="#897E74" points="1351.8,288.9 1351.8,280.4 1327.4,272.6 1351.8,220.2 1351.8,201 1316.2,277.5 		"/>
		<polygon fill="#897E74" points="1343.5,265.6 1351.8,268.3 1351.8,247.6 1351.8,247.6 		"/>
		<polygon fill="#897E74" points="1351.8,127.1 1351.8,107.9 1327.4,55.6 1351.8,47.7 1351.8,39.2 1316.2,50.7 		"/>
		<polygon fill="#897E74" points="1351.8,80.6 1351.8,80.6 1351.8,59.9 1343.5,62.6 		"/>
		<path fill="#897E74" d="M1238.4,199.7l76.4-35.6l-76.4-35.6l-11.4,35.6L1238.4,199.7z M1243.3,139.7l52.4,24.4l-52.4,24.4
			l-7.8-24.4L1243.3,139.7z"/>
		<polygon fill="#897E74" points="1268.3,164.1 1250.3,155.7 1247.6,164.1 1250.3,172.5 		"/>
		<polygon fill="#897E74" points="48.2,527 48.2,546.1 72.6,598.5 48.2,606.3 48.2,614.8 83.8,603.4 		"/>
		<polygon fill="#897E74" points="48.2,573.5 48.2,573.5 48.2,594.2 56.5,591.5 		"/>
		<path fill="#897E74" d="M161.6,454.4L85.1,490l76.4,35.6L173,490L161.6,454.4z M156.7,514.4L104.3,490l52.4-24.4l7.8,24.4
			L156.7,514.4z"/>
		<polygon fill="#897E74" points="48.2,365.2 48.2,373.7 72.6,381.5 48.2,433.9 48.2,453 83.8,376.6 		"/>
		<polygon fill="#897E74" points="56.5,388.5 48.2,385.8 48.2,406.5 48.2,406.5 		"/>
		<polygon fill="#897E74" points="131.7,490 149.7,498.4 152.4,490 149.7,481.6 		"/>
		<path fill="#897E74" d="M374.1,527l-35.6,76.4l35.6,11.4l35.6-11.4L374.1,527z M349.7,598.5l24.4-52.4l24.4,52.4l-24.4,7.8
			L349.7,598.5z"/>
		<polygon fill="#897E74" points="374.1,573.5 365.7,591.5 374.1,594.2 382.5,591.5 		"/>
		<path fill="#897E74" d="M487.5,454.4L411,490l76.4,35.6l11.4-35.6L487.5,454.4z M482.6,514.4L430.2,490l52.4-24.4l7.8,24.4
			L482.6,514.4z"/>
		<path fill="#897E74" d="M409.7,376.6l-35.6-11.4l-35.6,11.4l35.6,76.4L409.7,376.6z M374.1,373.7l24.4,7.8l-24.4,52.4l-24.4-52.4
			L374.1,373.7z"/>
		<polygon fill="#897E74" points="457.6,490 475.6,498.4 478.3,490 475.6,481.6 		"/>
		<polygon fill="#897E74" points="382.5,388.5 374.1,385.8 365.7,388.5 374.1,406.5 		"/>
		<path fill="#897E74" d="M260.7,525.6l76.4-35.6l-76.4-35.6L249.2,490L260.7,525.6z M265.6,465.6l52.4,24.4l-52.4,24.4l-7.8-24.4
			L265.6,465.6z"/>
		<polygon fill="#897E74" points="290.6,490 272.6,481.6 269.9,490 272.6,498.4 		"/>
		<path fill="#897E74" d="M700,527l-35.6,76.4l35.6,11.4l35.6-11.4L700,527z M675.6,598.5l24.4-52.4l24.4,52.4l-24.4,7.8
			L675.6,598.5z"/>
		<polygon fill="#897E74" points="700,573.5 691.6,591.5 700,594.2 708.4,591.5 		"/>
		<path fill="#897E74" d="M813.4,454.4L737,490l76.4,35.6l11.4-35.6L813.4,454.4z M808.5,514.4L756.1,490l52.4-24.4l7.8,24.4
			L808.5,514.4z"/>
		<path fill="#897E74" d="M735.6,376.6L700,365.2l-35.6,11.4L700,453L735.6,376.6z M700,373.7l24.4,7.8L700,433.9l-24.4-52.4
			L700,373.7z"/>
		<polygon fill="#897E74" points="783.5,490 801.5,498.4 804.2,490 801.5,481.6 		"/>
		<polygon fill="#897E74" points="708.4,388.5 700,385.8 691.6,388.5 700,406.5 		"/>
		<path fill="#897E74" d="M586.6,525.6L663,490l-76.4-35.6L575.2,490L586.6,525.6z M591.5,465.6l52.4,24.4l-52.4,24.4l-7.8-24.4
			L591.5,465.6z"/>
		<polygon fill="#897E74" points="616.5,490 598.5,481.6 595.8,490 598.5,498.4 		"/>
		<path fill="#897E74" d="M1061.5,603.4l-35.6-76.4l-35.6,76.4l35.6,11.4L1061.5,603.4z M1025.9,546.1l24.4,52.4l-24.4,7.8
			l-24.4-7.8L1025.9,546.1z"/>
		<polygon fill="#897E74" points="1034.3,591.5 1025.9,573.5 1017.5,591.5 1025.9,594.2 		"/>
		<path fill="#897E74" d="M1061.5,376.6l-35.6-11.4l-35.6,11.4l35.6,76.4L1061.5,376.6z M1025.9,373.7l24.4,7.8l-24.4,52.4
			l-24.4-52.4L1025.9,373.7z"/>
		<path fill="#897E74" d="M1139.3,454.4l-76.4,35.6l76.4,35.6l11.4-35.6L1139.3,454.4z M1134.4,514.4l-52.4-24.4l52.4-24.4l7.8,24.4
			L1134.4,514.4z"/>
		<polygon fill="#897E74" points="1109.4,490 1127.4,498.4 1130.1,490 1127.4,481.6 		"/>
		<polygon fill="#897E74" points="1034.3,388.5 1025.9,385.8 1017.5,388.5 1025.9,406.5 		"/>
		<path fill="#897E74" d="M912.5,525.6L989,490l-76.4-35.6L901.1,490L912.5,525.6z M917.4,465.6l52.4,24.4l-52.4,24.4l-7.8-24.4
			L917.4,465.6z"/>
		<polygon fill="#897E74" points="942.4,490 924.4,481.6 921.7,490 924.4,498.4 		"/>
		<polygon fill="#897E74" points="1351.8,614.8 1351.8,606.3 1327.4,598.5 1351.8,546.1 1351.8,527 1316.2,603.4 		"/>
		<polygon fill="#897E74" points="1343.5,591.5 1351.8,594.2 1351.8,573.5 1351.8,573.5 		"/>
		<polygon fill="#897E74" points="1351.8,453 1351.8,433.9 1327.4,381.5 1351.8,373.7 1351.8,365.2 1316.2,376.6 		"/>
		<polygon fill="#897E74" points="1351.8,406.5 1351.8,406.5 1351.8,385.8 1343.5,388.5 		"/>
		<path fill="#897E74" d="M1238.4,525.6l76.4-35.6l-76.4-35.6L1227,490L1238.4,525.6z M1243.3,465.6l52.4,24.4l-52.4,24.4l-7.8-24.4
			L1243.3,465.6z"/>
		<polygon fill="#897E74" points="1268.3,490 1250.3,481.6 1247.6,490 1250.3,498.4 		"/>
		<polygon fill="#897E74" points="48.2,852.9 48.2,872.1 72.6,924.4 48.2,932.3 48.2,932.6 73.5,932.6 83.8,929.3 		"/>
		<polygon fill="#897E74" points="48.2,899.4 48.2,899.4 48.2,920.1 56.5,917.4 		"/>
		<polygon fill="#897E74" points="48.2,691.1 48.2,699.6 72.6,707.4 48.2,759.8 48.2,779 83.8,702.5 		"/>
		<path fill="#897E74" d="M161.6,780.3l-76.4,35.6l76.4,35.6l11.4-35.6L161.6,780.3z M156.7,840.3l-52.4-24.4l52.4-24.4l7.8,24.4
			L156.7,840.3z"/>
		<polygon fill="#897E74" points="131.7,815.9 149.7,824.3 152.4,815.9 149.7,807.5 		"/>
		<polygon fill="#897E74" points="56.5,714.4 48.2,711.7 48.2,732.4 48.2,732.4 		"/>
		<path fill="#897E74" d="M374.1,852.9l-35.6,76.4l10.3,3.3h50.7l10.3-3.3L374.1,852.9z M349.7,924.4l24.4-52.4l24.4,52.4l-24.4,7.8
			L349.7,924.4z"/>
		<polygon fill="#897E74" points="374.1,899.4 365.7,917.4 374.1,920.1 382.5,917.4 		"/>
		<path fill="#897E74" d="M409.7,702.5l-35.6-11.4l-35.6,11.4l35.6,76.4L409.7,702.5z M374.1,699.6l24.4,7.8l-24.4,52.4l-24.4-52.4
			L374.1,699.6z"/>
		<path fill="#897E74" d="M487.5,780.3L411,815.9l76.4,35.6l11.4-35.6L487.5,780.3z M482.6,840.3l-52.4-24.4l52.4-24.4l7.8,24.4
			L482.6,840.3z"/>
		<polygon fill="#897E74" points="382.5,714.4 374.1,711.7 365.7,714.4 374.1,732.4 		"/>
		<polygon fill="#897E74" points="457.6,815.9 475.6,824.3 478.3,815.9 475.6,807.5 		"/>
		<path fill="#897E74" d="M260.7,851.5l76.4-35.6l-76.4-35.6l-11.4,35.6L260.7,851.5z M265.6,791.5l52.4,24.4l-52.4,24.4l-7.8-24.4
			L265.6,791.5z"/>
		<polygon fill="#897E74" points="290.6,815.9 272.6,807.5 269.9,815.9 272.6,824.3 		"/>
		<path fill="#897E74" d="M700,852.9l-35.6,76.4l10.3,3.3h50.7l10.3-3.3L700,852.9z M675.6,924.4l24.4-52.4l24.4,52.4l-24.4,7.8
			L675.6,924.4z"/>
		<polygon fill="#897E74" points="700,899.4 691.6,917.4 700,920.1 708.4,917.4 		"/>
		<path fill="#897E74" d="M735.6,702.5L700,691.1l-35.6,11.4L700,779L735.6,702.5z M700,699.6l24.4,7.8L700,759.8l-24.4-52.4
			L700,699.6z"/>
		<path fill="#897E74" d="M813.4,780.3L737,815.9l76.4,35.6l11.4-35.6L813.4,780.3z M808.5,840.3l-52.4-24.4l52.4-24.4l7.8,24.4
			L808.5,840.3z"/>
		<polygon fill="#897E74" points="708.4,714.4 700,711.7 691.6,714.4 700,732.4 		"/>
		<polygon fill="#897E74" points="783.5,815.9 801.5,824.3 804.2,815.9 801.5,807.5 		"/>
		<path fill="#897E74" d="M586.6,851.5l76.4-35.6l-76.4-35.6l-11.4,35.6L586.6,851.5z M591.5,791.5l52.4,24.4l-52.4,24.4l-7.8-24.4
			L591.5,791.5z"/>
		<polygon fill="#897E74" points="616.5,815.9 598.5,807.5 595.8,815.9 598.5,824.3 		"/>
		<path fill="#897E74" d="M1025.9,852.9l-35.6,76.4l10.3,3.3h50.7l10.3-3.3L1025.9,852.9z M1001.5,924.4l24.4-52.4l24.4,52.4
			l-24.4,7.8L1001.5,924.4z"/>
		<polygon fill="#897E74" points="1025.9,899.4 1017.5,917.4 1025.9,920.1 1034.3,917.4 		"/>
		<path fill="#897E74" d="M1139.3,780.3l-76.4,35.6l76.4,35.6l11.4-35.6L1139.3,780.3z M1134.4,840.3l-52.4-24.4l52.4-24.4l7.8,24.4
			L1134.4,840.3z"/>
		<path fill="#897E74" d="M1061.5,702.5l-35.6-11.4l-35.6,11.4l35.6,76.4L1061.5,702.5z M1025.9,699.6l24.4,7.8l-24.4,52.4
			l-24.4-52.4L1025.9,699.6z"/>
		<polygon fill="#897E74" points="1109.4,815.9 1127.4,824.3 1130.1,815.9 1127.4,807.5 		"/>
		<polygon fill="#897E74" points="1034.3,714.4 1025.9,711.7 1017.5,714.4 1025.9,732.4 		"/>
		<path fill="#897E74" d="M912.5,851.5l76.4-35.6l-76.4-35.6l-11.4,35.6L912.5,851.5z M917.4,791.5l52.4,24.4l-52.4,24.4l-7.8-24.4
			L917.4,791.5z"/>
		<polygon fill="#897E74" points="942.4,815.9 924.4,807.5 921.7,815.9 924.4,824.3 		"/>
		<polygon fill="#897E74" points="1326.5,932.6 1351.8,932.6 1351.8,932.3 1327.4,924.4 1351.8,872.1 1351.8,852.9 1316.2,929.3 		
			"/>
		<polygon fill="#897E74" points="1343.5,917.4 1351.8,920.1 1351.8,899.4 1351.8,899.4 		"/>
		<polygon fill="#897E74" points="1351.8,779 1351.8,759.8 1327.4,707.4 1351.8,699.6 1351.8,691.1 1316.2,702.5 		"/>
		<polygon fill="#897E74" points="1351.8,732.4 1351.8,732.4 1351.8,711.7 1343.5,714.4 		"/>
		<path fill="#897E74" d="M1238.4,851.5l76.4-35.6l-76.4-35.6l-11.4,35.6L1238.4,851.5z M1243.3,791.5l52.4,24.4l-52.4,24.4
			l-7.8-24.4L1243.3,791.5z"/>
		<polygon fill="#897E74" points="1268.3,815.9 1250.3,807.5 1247.6,815.9 1250.3,824.3 		"/>
	</g>
</g>
</svg>
